<svg width="20" height="20" viewBox="0 0 20 20" fill="none" xmlns="http://www.w3.org/2000/svg">
<path d="M0.637779 4.89317L8.97111 9.25792C9.25111 9.40417 9.61333 9.4735 9.97778 9.4735C10.3422 9.4735 10.7044 9.40417 10.9844 9.25792L19.3178 4.89317C19.8611 4.60825 20.3744 3.5 19.3778 3.5H0.578891C-0.417776 3.5 0.0955573 4.60825 0.637779 4.89317ZM19.57 7.27975L10.9844 11.6423C10.6067 11.8352 10.3422 11.8579 9.97778 11.8579C9.61333 11.8579 9.34889 11.8352 8.97111 11.6423C8.59333 11.4495 1.04556 7.59175 0.428891 7.27867C-0.0044426 7.05767 1.79562e-06 7.31658 1.79562e-06 7.51592V15.4167C1.79562e-06 15.8717 0.628891 16.5 1.11111 16.5H18.8889C19.3711 16.5 20 15.8717 20 15.4167V7.517C20 7.31767 20.0044 7.05875 19.57 7.27975Z" fill="black"/>
</svg>
