<svg width="20" height="19" viewBox="0 0 20 19" fill="none" xmlns="http://www.w3.org/2000/svg">
<g clip-path="url(#clip0_180_7121)">
<path d="M0 2.20707C0 1.56733 0.225232 1.03955 0.675676 0.623737C1.12612 0.207906 1.71172 0 2.43243 0C3.14029 0 3.71299 0.204701 4.15058 0.614141C4.60102 1.03636 4.82625 1.58652 4.82625 2.26465C4.82625 2.87879 4.60747 3.39056 4.16988 3.8C3.71944 4.22222 3.12741 4.43333 2.39382 4.43333H2.37452C1.66666 4.43333 1.09396 4.22222 0.656371 3.8C0.218784 3.37778 0 2.84679 0 2.20707ZM0.250965 19V6.1798H4.53668V19H0.250965ZM6.9112 19H11.1969V11.8414C11.1969 11.3936 11.2484 11.0481 11.3514 10.8051C11.5315 10.37 11.805 10.0022 12.1718 9.70152C12.5386 9.40084 12.9987 9.2505 13.5521 9.2505C14.9936 9.2505 15.7143 10.2165 15.7143 12.1485V19H20V11.6495C20 9.75589 19.5496 8.3197 18.6486 7.34091C17.7477 6.36212 16.5573 5.87273 15.0772 5.87273C13.417 5.87273 12.1236 6.58283 11.1969 8.00303V8.04141H11.1776L11.1969 8.00303V6.1798H6.9112C6.93693 6.58922 6.94981 7.86228 6.94981 9.99899C6.94981 12.1357 6.93693 15.136 6.9112 19Z" fill="black"/>
</g>
<defs>
<clipPath id="clip0_180_7121">
<rect width="20" height="19" fill="white"/>
</clipPath>
</defs>
</svg>
