<svg width="20" height="20" viewBox="0 0 20 20" fill="none" xmlns="http://www.w3.org/2000/svg">
<path d="M20 10.2786C20 9.05234 19.0111 8.05625 17.7951 8.05625C17.216 8.05625 16.6949 8.2776 16.2984 8.64505C14.8552 7.63568 12.9087 6.97161 10.735 6.84766L11.7105 3.60703L14.6993 4.20469C14.8018 5.20964 15.6437 5.99323 16.6726 5.99323H16.6904C17.7862 5.99323 18.6726 5.09896 18.6726 3.99661C18.6726 2.89427 17.7817 2 16.686 2H16.6771H16.6726C15.9065 2 15.2472 2.43385 14.9131 3.07578L10.9176 2.27891L9.54566 6.8388L9.4343 6.84323C7.19376 6.94062 5.1804 7.61354 3.70156 8.64505C3.30958 8.2776 2.78396 8.05625 2.2049 8.05625C0.988864 8.05625 0 9.05234 0 10.2786C0 11.1464 0.489978 11.8945 1.20713 12.262C1.17149 12.4789 1.15367 12.6958 1.15367 12.9172C1.15813 16.2729 5.11804 19 10 19C14.882 19 18.8419 16.2729 18.8419 12.9128C18.8419 12.6914 18.8241 12.4745 18.7929 12.2576C19.51 11.8901 20 11.1419 20 10.2786ZM1.52784 11.1685C1.23385 10.9693 1.04232 10.6328 1.04232 10.2477C1.04232 9.63672 1.53675 9.13646 2.14254 9.13646C2.39198 9.13646 2.62361 9.22057 2.81069 9.36224C2.20935 9.88906 1.76392 10.5 1.52784 11.1685ZM15.9376 3.99661C15.9376 3.58932 16.2673 3.25286 16.6726 3.25286C17.078 3.25286 17.4076 3.5849 17.4076 3.99661C17.4076 4.40391 17.078 4.74036 16.6726 4.74036C16.2673 4.74036 15.9376 4.40833 15.9376 3.99661ZM5.65702 11.9344C5.65702 11.1552 6.28953 10.5266 7.0735 10.5266C7.85746 10.5266 8.48998 11.1552 8.48998 11.9344C8.48998 12.7135 7.85746 13.3422 7.0735 13.3422C6.28953 13.3422 5.65702 12.7135 5.65702 11.9344ZM10 16.875C7.87973 16.8661 6.6147 15.6133 6.56125 15.5602L7.12249 15.0112C7.1314 15.0201 8.17817 16.0826 10 16.0914C11.7951 16.0826 12.8597 15.0201 12.8731 15.0112L13.4343 15.5602C13.3808 15.6133 12.1203 16.8661 10 16.875ZM12.9532 13.3422C12.1693 13.3422 11.5367 12.7135 11.5367 11.9344C11.5367 11.1552 12.1693 10.5266 12.9532 10.5266C13.7372 10.5266 14.3697 11.1552 14.3697 11.9344C14.3697 12.7135 13.7327 13.3422 12.9532 13.3422ZM18.4811 11.1862C18.2405 10.5089 17.7862 9.88464 17.1759 9.35339C17.363 9.20729 17.5991 9.12318 17.853 9.12318C18.4722 9.12318 18.971 9.62786 18.971 10.2521C18.9755 10.6417 18.7795 10.9826 18.4811 11.1862Z" fill="black"/>
</svg>
