<svg width="30" height="30" viewBox="0 0 30 30" fill="none" xmlns="http://www.w3.org/2000/svg">
<path d="M19.9559 9.61815C21.7758 9.61815 23.2511 8.14282 23.2511 6.32291C23.2511 4.50301 21.7758 3.02768 19.9559 3.02768C18.136 3.02768 16.6606 4.50301 16.6606 6.32291C16.6606 8.14282 18.136 9.61815 19.9559 9.61815Z" fill="#6E34C8"/>
<path d="M25.4555 26.8792H25.4668V16.8478H26.6369V25.3033C26.6369 27.6518 30.007 27.6518 30 25.3033V15.7052C30 13.3732 28.3012 10.8621 25.6926 11.4381C25.347 11.5145 25.0707 11.6203 24.8571 11.7239C23.929 11.1338 22.0808 10.1699 19.9083 10.1699C16.5675 10.1699 14.4128 12.0857 14.3223 12.1673C14.1048 11.1038 13.1449 10.3025 11.9937 10.3025C10.841 10.3025 9.8802 11.1063 9.66445 12.1719V5.32378H11.19V9.36772H14.6035V5.32378H15.8372V4.04364H14.6035V0H11.19V4.04364H9.66384C9.65773 3.09476 8.88732 2.32619 7.93662 2.32619C6.9853 2.32619 6.21489 3.09476 6.20878 4.04364H4.64719V0H1.23369V4.04364H0V5.32378H1.23369V9.36772H4.64719V5.32378H6.20817V13.9037C6.20817 14.8577 6.98133 15.6315 7.93662 15.6315H14.4324V26.8789L25.4555 26.8792ZM22.611 15.7834C22.8729 15.7834 23.0853 15.9958 23.0853 16.2577C23.0853 16.5196 22.8729 16.732 22.611 16.732C22.3491 16.732 22.1367 16.5196 22.1367 16.2577C22.1367 15.9955 22.3491 15.7834 22.611 15.7834ZM17.2059 15.7834C17.4678 15.7834 17.6802 15.9958 17.6802 16.2577C17.6802 16.5196 17.4678 16.732 17.2059 16.732C16.944 16.732 16.7317 16.5196 16.7317 16.2577C16.732 15.9955 16.9443 15.7834 17.2059 15.7834ZM19.956 23.2555C19.6941 23.2555 19.4817 23.0431 19.4817 22.7812C19.4817 22.5193 19.6941 22.3069 19.956 22.3069C20.2179 22.3069 20.4303 22.5193 20.4303 22.7812C20.43 23.0431 20.2176 23.2555 19.956 23.2555ZM24.3178 18.4659H15.5939V17.8113H19.6287V13.2555H20.283V17.8113H24.3178V18.4659Z" fill="#6E34C8"/>
</svg>
