<svg width="26" height="18" viewBox="0 0 26 18" fill="none" xmlns="http://www.w3.org/2000/svg">
<path d="M8.55151 7.94571C8.2596 7.66285 7.80848 7.66285 7.54311 7.94571L5.20786 10.2086C5.15479 9.82285 5.10171 9.43714 5.10171 9.02571C5.10171 4.80857 8.63112 1.38857 12.9832 1.38857C14.2304 1.38857 15.4246 1.67143 16.5391 2.21143C16.8841 2.39143 17.3352 2.23714 17.4944 1.90286C17.6802 1.56857 17.521 1.13143 17.176 0.977142C15.8757 0.334285 14.4692 0 12.9832 0C7.86155 0 3.66872 4.03714 3.66872 9.02571C3.66872 9.48856 3.69526 9.95142 3.77487 10.4143L1.22733 7.94571C0.935425 7.66285 0.484298 7.66285 0.218929 7.94571C-0.0729764 8.22857 -0.0729764 8.66571 0.218929 8.92285L3.88102 12.4714C4.0137 12.6 4.19946 12.6771 4.38522 12.6771C4.57098 12.6771 4.75673 12.6 4.88942 12.4714L8.55151 8.92285C8.81688 8.63999 8.81688 8.20285 8.55151 7.94571Z" fill="#EF3F35"/>
<path d="M25.774 9.07712L22.1384 5.52855C21.8465 5.24569 21.3954 5.24569 21.13 5.52855L17.4679 9.07712C17.176 9.35997 17.176 9.79712 17.4679 10.0543C17.7598 10.3371 18.2109 10.3371 18.4763 10.0543L20.8116 7.7914C20.8646 8.17712 20.9177 8.56283 20.9177 8.97426C20.9177 13.1914 17.3883 16.6114 13.0363 16.6114C11.789 16.6114 10.5949 16.3285 9.48032 15.7885C9.13534 15.6085 8.68421 15.7628 8.52499 16.0971C8.33923 16.4314 8.49845 16.8685 8.84343 17.0228C10.1437 17.6657 11.5767 18 13.0628 18C18.1844 18 22.3772 13.9628 22.3772 8.97426C22.3772 8.5114 22.3507 8.04855 22.2711 7.58569L24.8186 10.0543C24.9513 10.1828 25.1371 10.26 25.3228 10.26C25.5086 10.26 25.6943 10.1828 25.827 10.0543C26.0659 9.79712 26.0659 9.35997 25.774 9.07712Z" fill="#EF3F35"/>
</svg>
