<svg width="30" height="30" viewBox="0 0 30 30" fill="none" xmlns="http://www.w3.org/2000/svg">
<g clip-path="url(#clip0_149_4956)">
<path d="M29.5365 0C29.5365 0 27.2972 0.705523 25.9168 1.87117C24.8432 2.76074 23.3708 4.53989 21.9904 5.76688C21.0702 6.56443 19.1683 7.51535 18.0947 7.97548C18.2481 8.3129 18.4322 8.9264 18.8309 9.57057C19.7512 9.14112 22.3892 8.03683 23.5549 6.90185C24.8739 5.64418 26.5917 3.46626 27.6346 2.82209C28.5242 2.26994 30.0886 2.08589 30.0886 2.08589L29.5365 0Z" fill="#6E34C8"/>
<path d="M28.6162 30.0001C28.6162 30.0001 27.3585 26.4725 25.9781 21.1044C25.2113 18.2209 24.7511 15.6442 24.7511 15.6442H20.6407L21.9597 24.0798L19.6898 15.6442H20.3033L22.6959 13.6811C22.6959 13.6811 21.0395 13.0062 19.6898 11.5952C18.3094 10.1841 17.6346 8.22092 17.6346 8.22092L14.4444 9.72399C14.4444 9.72399 15.7327 11.3498 16.5916 13.0982C16.9904 13.8651 17.2971 14.816 17.5732 15.6442H11.8063L9.10693 30.0001H11.9597L14.0763 22.3007L13.064 30.0001H15.1806L16.4076 18.9878V30.0001H19.1376L18.7389 24.0492L20.0272 30.0001H28.6162Z" fill="#6E34C8"/>
</g>
<defs>
<clipPath id="clip0_149_4956">
<rect width="30" height="30" fill="white"/>
</clipPath>
</defs>
</svg>
