<svg width="35" height="56" viewBox="0 0 35 56" fill="none" xmlns="http://www.w3.org/2000/svg">
<path d="M18.5114 22.3757C18.9331 23.2039 19.4566 24.5136 19.9043 25.6984C22.5797 26.7143 25.2818 27.0105 27.5276 27.0093C29.2715 27.0093 30.7384 26.8471 31.7028 26.7397C32.7791 26.6204 33.5524 25.6515 33.4331 24.5769C33.3138 23.5006 32.3268 22.7375 31.2703 22.8466C28.8317 23.1151 22.716 23.2118 17.9524 18.8535C17.4419 18.3866 16.5686 17.8688 15.4702 17.5991C15.8326 18.0434 17.1875 19.7743 18.5114 22.3757Z" fill="black"/>
<path d="M33.8144 38.8654C31.8902 36.2199 29.1639 34.8395 26.7581 33.6202C24.3748 32.4127 22.3161 31.3692 21.1403 29.3693C20.9713 29.0815 20.7961 28.7525 20.6237 28.4445C20.0589 28.5965 18.5355 28.9532 16.6746 28.9425C13.5062 28.9249 11.3587 27.8068 11.3587 27.8068L10.5775 24.9674C10.5775 24.9674 14.0653 22.3231 14.9002 19.43C15.154 18.5504 14.5972 17.7793 13.9703 17.4306C13.1931 17.4277 12.3587 17.5498 11.4825 17.9037C4.78509 12.2453 8.06145 2.91589 8.17563 2.49362C8.82062 0.102491 6.07845 -0.948929 4.80261 1.0612C4.78735 1.08551 -1.31314 11.6918 7.24575 20.7804C6.12254 21.6911 4.95354 22.6673 3.97561 23.5474C1.13621 26.1031 0 27.5231 0 27.5231C0 27.5231 1.41998 29.7949 5.25371 31.7824C7.32545 32.8565 10.0868 33.8892 12.0212 34.5613C12.1139 34.71 12.1936 34.8626 12.2931 35.0096C13.8149 37.2589 14.842 38.5364 15.6661 39.5618C16.6203 40.7455 17.2489 41.5278 18.1522 43.2152C18.7497 44.3316 14.3151 48.3903 8.77596 52.5146C8.7347 52.5451 7.24745 53.6751 8.28021 55.2997C9.10213 56.5925 11.0359 55.7039 11.0766 55.6807C14.1772 53.8696 24.5049 48.4797 23.6581 43.1197C23.4105 41.551 22.9848 40.1265 22.22 38.498C22.5823 38.6195 22.9447 38.7376 23.3002 38.8524C25.8564 39.6783 28.2713 40.4595 29.5098 42.1627C29.996 42.8308 30.0378 43.9993 29.8145 45.3593C29.3052 47.7414 28.1995 50.4728 27.2233 52.4666C27.1221 52.6735 26.4076 54.4603 28.1215 55.2624C29.3725 55.8481 30.4375 54.7034 30.637 54.3834C31.7546 52.5881 37.0716 43.343 33.8144 38.8654Z" fill="black"/>
<path d="M14.4065 16.9191C12.2811 16.9191 10.5542 15.1927 10.5542 13.0656C10.5542 10.9368 12.2805 9.21045 14.4065 9.21045C16.5404 9.21045 18.2651 10.9368 18.2651 13.0656C18.2651 15.1927 16.541 16.9191 14.4065 16.9191Z" fill="black"/>
</svg>
