<svg width="30" height="30" viewBox="0 0 56 56" fill="none" xmlns="http://www.w3.org/2000/svg">
<g clip-path="url(#clip0_51_1215)">
<path d="M13.4742 18.6284C13.4742 21.7553 10.9726 24.2568 7.84574 24.2568C4.71884 24.2568 2.27417 21.7553 2.27417 18.6284C2.27417 15.5015 4.77569 13 7.90259 13C11.0295 13 13.4742 15.5584 13.4742 18.6284Z" fill="#6E34C8"/>
<path d="M20.9218 37.8444C21.4335 37.8444 21.9452 37.6738 22.3431 37.2758L29.5634 30.0555C30.3025 29.3164 30.3594 28.0657 29.5634 27.2697C28.7675 26.4738 27.5736 26.4738 26.7777 27.2697L20.9218 33.0119C20.9218 33.0119 18.3066 30.7378 15.6345 28.0657C14.4975 26.9286 13.0761 25.9053 11.1431 25.9053H3.80913C1.93299 25.9053 0 27.6677 0 29.8281V43.4728H14.4975V32.7845L19.2162 37.2758C19.6711 37.6169 20.4101 37.8444 20.9218 37.8444Z" fill="#6E34C8"/>
<path d="M18.9319 27.7254L20.6943 29.6016L22.0019 28.2939V16.6391H52.9298V40.4036H18.9319V43.4736H55.9999V13.1143H18.9319V27.7254Z" fill="#6E34C8"/>
<path d="M39.5694 33.7512C40.4222 33.7512 41.1044 34.4334 41.1044 35.2862C41.1044 36.139 40.4222 36.8212 39.5694 36.8212C38.7166 36.8212 38.0344 36.139 38.0344 35.2862C38.0344 34.4334 38.7166 33.7512 39.5694 33.7512ZM39.5694 38.1857C41.1613 38.1857 42.4689 36.8781 42.4689 35.2862C42.4689 33.6943 41.1613 32.3867 39.5694 32.3867C37.9775 32.3867 36.6699 33.6943 36.6699 35.2862C36.6699 36.8781 37.9775 38.1857 39.5694 38.1857Z" fill="#6E34C8"/>
<path d="M31.0985 20.334C31.9513 20.334 32.6335 21.0162 32.6335 21.869C32.6335 22.7218 31.9513 23.404 31.0985 23.404C30.2457 23.404 29.5634 22.7218 29.5634 21.869C29.5066 21.0162 30.2457 20.334 31.0985 20.334ZM31.0985 24.8253C32.6903 24.8253 33.998 23.5177 33.998 21.9259C33.998 20.334 32.6903 19.0264 31.0985 19.0264C29.5066 19.0264 28.199 20.334 28.199 21.9259C28.199 23.5177 29.5066 24.8253 31.0985 24.8253Z" fill="#6E34C8"/>
<path d="M43.0945 21.9255L44.0041 20.959L46.2782 23.1762L48.4955 20.959L49.462 21.9255L47.1879 24.1427L49.462 26.36L48.4955 27.3265L46.2782 25.1092L44.0041 27.3265L43.0945 26.36L45.3117 24.1427L43.0945 21.9255Z" fill="#6E34C8"/>
<path d="M37.9777 23.973L38.2051 22.6654L35.0782 22.04L34.7939 23.4045L37.9777 23.973ZM42.4122 24.8258L42.6396 23.5182L39.4559 22.8928L39.2285 24.2004L42.4122 24.8258Z" fill="#6E34C8"/>
<path d="M34.3958 28.4075L35.5329 27.7252L33.8841 24.9395L32.7471 25.6217L34.3958 28.4075ZM36.7268 32.2735L37.8638 31.5912L36.2151 28.8054L35.078 29.4877L36.7268 32.2735Z" fill="#6E34C8"/>
</g>
<defs>
<clipPath id="clip0_51_1215">
<rect width="56" height="56" fill="white"/>
</clipPath>
</defs>
</svg>
