<svg width="30" height="30" viewBox="0 0 30 30" fill="none" xmlns="http://www.w3.org/2000/svg">
<path d="M9.17211 11.2853C9.69929 10.9738 9.8734 10.2865 9.5583 9.75326C9.24169 9.21879 8.55712 9.04103 8.02994 9.35339C7.50155 9.66575 7.32835 10.35 7.64405 10.8845C7.95884 11.4171 8.64341 11.5976 9.17211 11.2853Z" fill="#6E34C8"/>
<path d="M24.005 14.9646C26.8795 13.6 28.7509 10.559 28.468 7.2015C28.1034 2.87529 24.3007 -0.336404 19.9745 0.0282159C15.6483 0.392836 12.4366 4.19552 12.8012 8.52173C12.8516 9.11879 12.9695 9.69368 13.143 10.2421C13.0297 10.2048 12.9042 10.2008 12.783 10.243L8.04047 11.9109C8.035 11.9127 7.89007 11.9662 7.88429 11.9683C7.61387 12.0628 7.40148 12.3761 7.33129 12.5645L4.27061 20.7295C4.26666 20.7395 4.26635 20.7486 4.26301 20.7587C4.2545 20.7845 4.24812 20.8106 4.24296 20.8371C4.24144 20.8459 4.23962 20.8547 4.2384 20.8632C4.19282 21.1503 4.33168 21.446 4.60515 21.5833C4.69691 21.6295 4.79384 21.6517 4.88985 21.655L0 23.366H30V12.8665L24.005 14.9646ZM15.1171 6.21733C15.4653 4.80473 16.3395 3.65375 17.5154 3.06003C17.7506 2.94122 18.0368 3.03572 18.1556 3.2706C18.2741 3.50547 18.1799 3.792 17.9451 3.91081C17.0174 4.37934 16.3237 5.30305 16.0421 6.44552C15.9886 6.66278 15.7941 6.80802 15.5799 6.80802C15.5419 6.80802 15.5039 6.80376 15.4653 6.79404C15.2101 6.73114 15.0539 6.47287 15.1171 6.21733ZM9.24372 13.8932C9.44669 13.4158 9.59011 12.9014 9.5974 12.5496L13.1534 11.3013C13.2846 11.2555 13.3858 11.1646 13.4508 11.0531C14.7723 14.0281 17.8685 15.9837 21.295 15.695C21.6852 15.6622 22.0659 15.6002 22.4363 15.5136L11.9583 19.1808C12.1619 19.0015 12.2488 18.711 12.1537 18.4394L11.2148 15.7537C11.1306 15.5127 10.9198 15.3386 10.6673 15.3009L8.68068 15.0077L9.24372 13.8932ZM5.52672 21.2776L7.77217 16.8138L10.0893 16.6926L10.8581 18.8921C10.9532 19.1641 11.2023 19.3376 11.4734 19.3506L5.36173 21.4897C5.42828 21.432 5.48479 21.3609 5.52672 21.2776Z" fill="#6E34C8"/>
</svg>
