<svg width="30" height="30" viewBox="0 0 30 30" fill="none" xmlns="http://www.w3.org/2000/svg">
<g clip-path="url(#clip0_149_4961)">
<path d="M25.1519 10.359L23.2153 12.3089L24.5428 13.6456L26.4794 11.6956L25.1519 10.359Z" fill="#6E34C8"/>
<path d="M28.6599 0.278661L25.564 3.45605L26.9041 4.77987L30 1.60247L28.6599 0.278661Z" fill="#6E34C8"/>
<path d="M16.2074 22.0318L23.0358 15.1727L21.7082 13.8359L15.8125 19.764C16.0367 20.5053 16.1714 21.2657 16.2074 22.0318Z" fill="#6E34C8"/>
<path d="M15.1596 28.1508L15.1368 28.1592L15.1079 28.2505L15.1301 28.2419L15.1596 28.1508Z" fill="#6E34C8"/>
<path d="M15.1801 28.0652L15.1484 28.0468L15.1372 28.0874L15.1801 28.0652Z" fill="#6E34C8"/>
<path d="M6.95996 13.199L7.02208 13.1758L7.02085 13.2123L6.95996 13.199Z" fill="#6E34C8"/>
<path d="M12.9398 18.7849L6.85891 25.0235C6.71714 25.169 6.53017 25.2415 6.3432 25.2415C6.16053 25.2415 5.97787 25.1718 5.83733 25.0334C5.55226 24.7523 5.54826 24.2912 5.82749 24.0051L12.0471 17.6247C11.4148 16.9565 10.6829 16.4415 9.89627 16.0793L6.32137 19.7463C6.1796 19.8919 5.99263 19.9643 5.80566 19.9643C5.62299 19.9643 5.44032 19.8946 5.29979 19.7562C5.01472 19.4751 5.01072 19.014 5.28995 18.7279L8.35652 15.5823C6.22142 15.155 3.92057 15.7287 2.21076 17.3417C-0.606109 19.9987 -0.750336 24.4522 1.88848 27.2882C4.5273 30.1245 8.95065 30.2703 11.7675 27.613C14.2366 25.2842 14.6514 21.5754 12.9398 18.7849Z" fill="#6E34C8"/>
<path d="M13.7285 16.1198C14.0834 16.5013 14.3903 16.9097 14.6692 17.3308L25.5225 6.2417L24.1835 4.91644L13.4668 15.8659C13.5532 15.952 13.6445 16.03 13.7285 16.1198Z" fill="#6E34C8"/>
<path d="M11.7206 14.4986L20.54 5.66024L19.2152 4.32074L9.90381 13.6527C10.533 13.8626 11.1403 14.1496 11.7206 14.4986Z" fill="#6E34C8"/>
<path d="M7.31933 13.1864L13.0164 7.45183L11.6889 6.11511L4.24414 13.6084C5.24481 13.2953 6.28391 13.1489 7.31933 13.1864Z" fill="#6E34C8"/>
</g>
<defs>
<clipPath id="clip0_149_4961">
<rect width="30" height="30" fill="white"/>
</clipPath>
</defs>
</svg>
