<svg width="30" height="30" viewBox="0 0 30 30" fill="none" xmlns="http://www.w3.org/2000/svg">
<g clip-path="url(#clip0_149_4952)">
<path d="M21.7943 8.53553C20.5595 8.53553 19.5566 7.53263 19.5566 6.29729C19.5566 5.06072 20.5595 4.05782 21.7943 4.05782C23.0342 4.05782 24.0359 5.06072 24.0359 6.29729C24.0359 7.53263 23.0342 8.53553 21.7943 8.53553Z" fill="#6E34C8"/>
<path d="M26.1191 13.3552C27.6674 14.7471 27.8341 17.203 27.8369 17.2239C27.8688 17.8339 28.3737 18.3076 28.9775 18.3076C28.9999 18.3076 29.0199 18.3064 29.0424 18.3052C29.6739 18.2717 30.1581 17.7309 30.1237 17.0997C30.1163 16.9604 29.9121 13.6854 27.6505 11.651C26.3279 10.463 24.7436 9.97941 22.5761 9.33715C22.2634 9.57081 21.8391 9.91639 21.3712 10.3723C20.5696 11.1542 19.8004 12.1085 19.8004 12.1085C19.8004 12.1085 19.7032 11.4622 19.9953 10.4108C20.2945 9.33469 20.7255 8.87597 20.8174 8.78773C15.687 7.01436 16.4203 1.57217 16.4575 1.32221C16.5537 0.698394 16.1267 0.113008 15.5032 0.0161609C14.8781 -0.090832 14.2921 0.345441 14.1937 0.969259C13.8402 3.2238 14.3161 7.48291 17.8948 9.88626C17.4871 10.2838 17.077 10.8307 16.7302 11.6387C15.9416 13.4767 16.5709 16.2533 16.5709 16.2533L18.7981 17.4151C17.663 18.4066 16.3566 19.8298 15.2243 21.8728C14.1916 23.7372 13.7704 26.0735 13.4949 27.7787C13.4445 28.0907 13.4023 28.4114 13.394 28.6537C13.3728 29.2864 13.6984 29.8703 14.321 29.9806C14.389 29.9932 14.4566 29.9997 14.523 29.9997C14.9574 29.9997 15.3568 29.7872 15.5496 29.4054C15.6415 29.2803 15.703 29.1001 15.7384 28.9381C15.9038 28.1799 16.4077 25.8722 17.0736 24.6414C18.3947 22.2009 21.0619 20.4918 22.1383 19.8806C22.1791 19.919 22.2191 19.955 22.2591 19.9949C26.4346 24.1363 27.3348 28.7945 27.336 28.7969L27.3422 28.7957C27.5014 29.5056 28.0259 30 28.5351 30C28.6298 30 28.7266 29.9877 28.8213 29.9628C29.4353 29.8051 29.803 29.1809 29.6453 28.5685C29.5709 28.2774 28.8336 25.4998 28.8336 25.4962C27.8744 22.1333 26.8404 20.3909 25.9294 18.8546C25.436 18.0232 24.9711 17.2377 24.5434 16.2474C23.8501 14.6354 24.1272 13.2796 24.3657 12.3302C25.0676 12.6106 25.6392 12.9239 26.1191 13.3552Z" fill="#6E34C8"/>
</g>
<defs>
<clipPath id="clip0_149_4952">
<rect width="30" height="30" fill="white"/>
</clipPath>
</defs>
</svg>
