<svg width="19" height="16" viewBox="0 0 19 16" fill="none" xmlns="http://www.w3.org/2000/svg">
<path d="M13.7956 4.35226H15.8891L14.7231 5.41833C14.4051 5.70908 14.4051 6.16942 14.7231 6.43594C14.8821 6.58132 15.0941 6.654 15.2796 6.654C15.4651 6.654 15.6771 6.58132 15.8361 6.43594L18.3801 4.10997C18.4066 4.08574 18.4596 4.03729 18.4861 3.98883C18.4861 3.98883 18.5126 3.9646 18.5126 3.94037C18.5391 3.91614 18.5392 3.89191 18.5657 3.84346C18.5657 3.81923 18.5657 3.81923 18.5922 3.795C18.5922 3.77077 18.6187 3.74654 18.6187 3.72231C18.6187 3.69808 18.6187 3.64963 18.6187 3.6254C18.6187 3.60117 18.6187 3.60117 18.6187 3.57694C18.6187 3.55271 18.6187 3.55271 18.6187 3.52848C18.6187 3.50425 18.6187 3.4558 18.6187 3.43157C18.6187 3.40734 18.5922 3.38311 18.5922 3.35888C18.5922 3.33465 18.5922 3.31042 18.5657 3.31042C18.5392 3.28619 18.5391 3.26196 18.5126 3.21351C18.5126 3.18928 18.4861 3.18928 18.4861 3.16505C18.4596 3.11659 18.4331 3.09236 18.3801 3.04391L15.8361 0.717937C15.5181 0.427191 15.0146 0.427191 14.7231 0.717937C14.4051 1.00868 14.4051 1.46903 14.7231 1.73555L15.8891 2.80162H13.7956C10.8276 2.80162 9.10505 5.2245 7.62103 7.35664C6.21652 9.3434 4.8915 11.2333 2.77148 11.2333H1.52597C1.07546 11.2333 0.730957 11.5482 0.730957 11.9601C0.730957 12.372 1.07546 12.687 1.52597 12.687H2.77148C5.73951 12.687 7.46203 10.2641 8.94605 8.13196C10.3771 6.24211 11.7021 4.35226 13.7956 4.35226Z" fill="#656268"/>
<path d="M1.52597 4.35223H2.77148C3.91099 4.35223 4.8915 4.86103 5.92501 6.02402C6.08401 6.19362 6.32252 6.29053 6.53452 6.29053C6.72002 6.29053 6.90552 6.24208 7.03803 6.12093C7.38253 5.85442 7.43553 5.4183 7.14403 5.10332C6.29602 4.1584 4.8915 2.8985 2.77148 2.8985H1.52597C1.07546 2.8985 0.730957 3.21347 0.730957 3.62536C0.730957 4.03725 1.07546 4.35223 1.52597 4.35223Z" fill="#656268"/>
<path d="M18.5656 12.3236C18.5656 12.2993 18.5656 12.2993 18.5921 12.2751C18.5921 12.2509 18.6186 12.2266 18.6186 12.1782C18.6186 12.154 18.6186 12.1297 18.6186 12.0813C18.6186 12.057 18.6186 12.057 18.6186 12.0328C18.6186 12.0086 18.6186 12.0086 18.6186 11.9844C18.6186 11.9601 18.6186 11.9117 18.6186 11.8874C18.6186 11.8632 18.5921 11.839 18.5921 11.8148C18.5921 11.7905 18.5921 11.7663 18.5656 11.7421C18.5656 11.7178 18.5391 11.6936 18.5126 11.6694C18.5126 11.6452 18.4861 11.6451 18.4861 11.6209C18.4596 11.5725 18.4331 11.5482 18.3801 11.4998L15.8361 9.17381C15.5181 8.88306 15.0146 8.88306 14.723 9.17381C14.405 9.46456 14.405 9.9249 14.723 10.1914L15.8891 11.2575H13.7955C12.656 11.2575 11.6755 10.7245 10.6155 9.56147C10.324 9.2465 9.847 9.19804 9.50249 9.46456C9.15799 9.73107 9.10499 10.1672 9.39649 10.4822C10.2445 11.4271 11.649 12.7112 13.7955 12.7112H15.8891L14.723 13.7773C14.405 14.068 14.405 14.5284 14.723 14.7949C14.8821 14.9403 15.0941 15.013 15.2796 15.013C15.4651 15.013 15.6771 14.9403 15.8361 14.7949L18.3801 12.4689C18.4066 12.4447 18.4596 12.3962 18.4861 12.3478C18.4861 12.3478 18.4861 12.3236 18.5126 12.3236C18.5126 12.3962 18.5391 12.372 18.5656 12.3236Z" fill="#656268"/>
</svg>
